<svg id="a299840f-86b6-47fa-a80f-f2f543305657" data-name="Layer 1" xmlns="http://www.w3.org/2000/svg" viewBox="0 0 512 512"><title>Cenit_IO_512x512px</title><path d="M487.25,357.75a25,25,0,0,0-23,15.2,10.2,10.2,0,0,0-2-.2H291.89a37,37,0,0,0-3.52-8.48L435.7,216.94a25,25,0,1,0-14.14-14.14L274.23,350.13a37,37,0,0,0-8.48-3.52V141.75a10.2,10.2,0,0,0-.2-2,25,25,0,1,0-19.6,0,10.2,10.2,0,0,0-.2,2V346.61a36.82,36.82,0,0,0-8.48,3.52L89.94,202.8A25,25,0,1,0,75.8,216.94L223.13,364.27a37,37,0,0,0-3.52,8.48H49.25a10.2,10.2,0,0,0-2,.2,25,25,0,1,0,0,19.6,10.2,10.2,0,0,0,2,.2H219.61a37.5,37.5,0,0,0,72.28,0H462.25a10.2,10.2,0,0,0,2-.2,25,25,0,1,0,23-34.8Z"/></svg>