<svg id="b7ac717b-98d0-451f-89e1-6091d597b776" data-name="Layer 1" xmlns="http://www.w3.org/2000/svg" viewBox="0 0 1590 506.79"><title>Cenit_IO</title><path d="M622,506.79l35.42-104.58h28.88l35.41,104.58H699.54l-7.6-23.1H651.05l-7.45,23.1Zm34.5-40.58h29.8l-14.44-44.39H671Z"/><path d="M753.8,506.79V402.21h35.27a147.3,147.3,0,0,1,22.19,1.37q8.65,1.37,13.6,4.87a19.67,19.67,0,0,1,7.15,9.34,53.59,53.59,0,0,1,2.81,14.9q.6,9,.61,21.81t-.61,21.81a53.52,53.52,0,0,1-2.81,14.9,19.7,19.7,0,0,1-7.15,9.35q-4.93,3.49-13.6,4.86a147.3,147.3,0,0,1-22.19,1.37Zm21.59-17.63H788q7.46,0,12.24-.31a16.46,16.46,0,0,0,7.52-2,10.16,10.16,0,0,0,4.11-5.32,35,35,0,0,0,1.67-10.19q.3-6.53.3-16.87t-.3-16.79a35.73,35.73,0,0,0-1.67-10.19,10,10,0,0,0-4.18-5.39,16.91,16.91,0,0,0-7.6-2c-3.2-.2-7.22-.3-12.09-.3H775.39Z"/><path d="M874.79,506.79V402.21h29.64l25.69,69H931l25.84-69h29.48V506.79h-21v-73h-.76l-27.06,73h-14.9l-27-73h-.76v73Z"/><path d="M1028.62,506.79V402.21h21.58V506.79Z"/><path d="M1092.3,506.79V402.21h22.2l41.34,64.45h.61V402.21h20.67V506.79H1156.6l-43-67.94h-.77v67.94Z"/><path d="M1263.76,506.79l35.41-104.58h28.88l35.42,104.58h-22.19l-7.6-23.1h-40.89l-7.45,23.1Zm34.5-40.58h29.79l-14.44-44.39h-.91Z"/><path d="M1395.54,506.79V402.21h48.18q9.88,0,16,2.36a21,21,0,0,1,9.58,6.92,26,26,0,0,1,4.63,10.94,76.77,76.77,0,0,1,1.22,14.29,78.83,78.83,0,0,1-1.14,13.83,27.12,27.12,0,0,1-4.49,11.1,21.3,21.3,0,0,1-9.65,7.29q-6.3,2.6-16.64,2.59h-26.14v35.26Zm21.59-52.74h17.63a55.75,55.75,0,0,0,10.33-.76,10.53,10.53,0,0,0,5.63-2.66,9.45,9.45,0,0,0,2.35-5.17,56.22,56.22,0,0,0,.53-8.74,55.16,55.16,0,0,0-.53-8.51,10.22,10.22,0,0,0-2.2-5.25,9.27,9.27,0,0,0-5.47-2.58,58.46,58.46,0,0,0-10-.69h-18.24Z"/><path d="M1511.06,506.79V402.21h48.18q9.88,0,16,2.36a21,21,0,0,1,9.57,6.92,26,26,0,0,1,4.64,10.94,76.77,76.77,0,0,1,1.22,14.29,78.83,78.83,0,0,1-1.14,13.83,27.12,27.12,0,0,1-4.49,11.1,21.41,21.41,0,0,1-9.65,7.29q-6.32,2.6-16.64,2.59h-26.15v35.26Zm21.58-52.74h17.63a55.8,55.8,0,0,0,10.34-.76,10.49,10.49,0,0,0,5.62-2.66,9.46,9.46,0,0,0,2.36-5.17,57.49,57.49,0,0,0,.53-8.74,56.45,56.45,0,0,0-.53-8.51,10.3,10.3,0,0,0-2.2-5.25,9.28,9.28,0,0,0-5.48-2.58,58.3,58.3,0,0,0-10-.69h-18.24Z"/><path d="M740.76,316.67q-32.06,0-53.34-4.22t-35-14.34a62.18,62.18,0,0,1-20.66-27q-7-16.86-9.49-42.38t-2.53-60.51q0-35,2.53-60.51t9.49-42.58q7-17.09,20.66-27t35-14.13q21.29-4.2,53.34-4.21,12.65,0,25.93.84T792,23.19q12,1.69,20.87,3.8V72.52q-11.8-1.26-22.14-2.31t-19.6-1.27q-9.29-.21-15.6-.21a304.91,304.91,0,0,0-35.42,1.69q-13.92,1.68-22.14,7t-12,16q-3.8,10.75-5.06,28.88t-1.26,46q0,27.42,1.26,45.75t5.06,29.1q3.79,10.75,12,16t22.14,7a304.91,304.91,0,0,0,35.42,1.69q13.49,0,30.36-1.06T814.55,264v46.38q-9.7,1.7-22.35,3.17t-25.93,2.31Q753,316.66,740.76,316.67Z"/><path d="M960,316.67q-28.68,0-47.65-3.8t-30.15-12a50,50,0,0,1-16.65-21.08q-5.49-12.86-7.17-31.2t-1.69-42.38a363.73,363.73,0,0,1,3-49.75q2.94-21.09,12.43-35t29.52-20.24q20-6.33,53.34-6.33,27,0,43.85,4t26.78,12.65a49.26,49.26,0,0,1,14.34,21.71q4.42,13.08,5.69,31.42t1.26,41.53v16.45H912.37a181.13,181.13,0,0,0,1.48,26.14q1.47,9.71,7.17,15t18.13,6.75Q951.59,272,973.09,272q8.86,0,20-.21t23.19-1.48q12-1.26,22.14-2.1v41.74q-8.85,1.69-22.35,3.37t-28.25,2.53Q973.09,316.66,960,316.67Zm33.73-122.28v-6.33q0-16.44-1.89-26.35T985.53,147q-4.42-4.84-12.23-6.54a90.37,90.37,0,0,0-18.76-1.68q-14.34,0-22.56,1.89t-12.23,7.17q-4,5.28-5.69,15.18a156.58,156.58,0,0,0-1.69,25.51h89Z"/><path d="M1099.17,313.29v-215H1151l1.69,27h3.79a51,51,0,0,1,14.34-17.29,58.32,58.32,0,0,1,21.71-9.9,123.17,123.17,0,0,1,29.31-3.17q21.92,0,35.21,5.48t20.45,16q7.17,10.55,9.49,26.14a250.36,250.36,0,0,1,2.32,36.26V313.29h-55.66V199.45a293,293,0,0,0-1.27-31q-1.26-11.16-4.85-16.44t-11.38-7a100.55,100.55,0,0,0-20.45-1.69q-13.5,0-21.93,3.17a21.88,21.88,0,0,0-12.23,10.33q-3.79,7.17-5.27,18.13a206.3,206.3,0,0,0-1.47,27V313.29Z"/><path d="M1348.36,49.76V0h57.35V49.76Zm.85,263.53v-215h56.08v215Z"/><path d="M1485.4,313.29V143.36h-41.32V98.25h41.32V35.84h56.08V98.25h48.91v45.11h-48.91V313.29Z"/><path d="M489.77,339.79a25,25,0,0,0-23,15.2,10.2,10.2,0,0,0-2-.2H294.41a37.19,37.19,0,0,0-3.52-8.48L438.22,199a25,25,0,1,0-14.14-14.15L276.75,332.17a37.46,37.46,0,0,0-8.48-3.52V123.79a10,10,0,0,0-.2-2,25,25,0,1,0-19.6,0,10,10,0,0,0-.2,2V328.65a37.27,37.27,0,0,0-8.48,3.52L92.46,184.84A25,25,0,1,0,78.32,199L225.65,346.31a37.19,37.19,0,0,0-3.52,8.48H51.77a10.2,10.2,0,0,0-2,.2,25,25,0,1,0,0,19.6,10.2,10.2,0,0,0,2,.2H222.13a37.5,37.5,0,0,0,72.28,0H464.77a10.2,10.2,0,0,0,2-.2,25,25,0,1,0,23-34.8Z"/></svg>